<?xml version="1.0" encoding="UTF-8"?>
<svg version="1.1" xmlns="http://www.w3.org/2000/svg" width="512" height="512">
<path d="M0 0 C0.90186035 0.17692383 1.8037207 0.35384766 2.73291016 0.53613281 C9.20599895 1.83501287 15.60888488 3.34657126 22 5 C22.82000488 5.20963379 23.64000977 5.41926758 24.48486328 5.63525391 C58.17024255 14.44485883 88.96649009 31.29229379 116 53 C117.50046875 54.19109375 117.50046875 54.19109375 119.03125 55.40625 C132.89778302 66.7515952 146.2899831 79.6029281 157 94 C157.45971191 94.59973633 157.91942383 95.19947266 158.39306641 95.81738281 C183.7457788 128.9479423 200.63105558 166.93602242 208 208 C208.16226074 208.83128418 208.32452148 209.66256836 208.49169922 210.51904297 C213.76694663 238.13651472 213.55756833 270.45402542 208 298 C207.82307617 298.90186035 207.64615234 299.8037207 207.46386719 300.73291016 C206.16498713 307.20599895 204.65342874 313.60888488 203 320 C202.79036621 320.82000488 202.58073242 321.64000977 202.36474609 322.48486328 C193.55514117 356.17024255 176.70770621 386.96649009 155 414 C154.2059375 415.0003125 153.411875 416.000625 152.59375 417.03125 C141.2484048 430.89778302 128.3970719 444.2899831 114 455 C113.10039551 455.68956787 113.10039551 455.68956787 112.18261719 456.39306641 C79.0520577 481.7457788 41.06397758 498.63105558 0 506 C-0.83128418 506.16226074 -1.66256836 506.32452148 -2.51904297 506.49169922 C-30.13651472 511.76694663 -62.45402542 511.55756833 -90 506 C-90.90186035 505.82307617 -91.8037207 505.64615234 -92.73291016 505.46386719 C-99.20599895 504.16498713 -105.60888488 502.65342874 -112 501 C-112.82000488 500.79036621 -113.64000977 500.58073242 -114.48486328 500.36474609 C-148.17024255 491.55514117 -178.96649009 474.70770621 -206 453 C-207.0003125 452.2059375 -208.000625 451.411875 -209.03125 450.59375 C-222.89778302 439.2484048 -236.2899831 426.3970719 -247 412 C-247.68956787 411.10039551 -247.68956787 411.10039551 -248.39306641 410.18261719 C-273.7457788 377.0520577 -290.63105558 339.06397758 -298 298 C-298.16226074 297.16871582 -298.32452148 296.33743164 -298.49169922 295.48095703 C-303.76694663 267.86348528 -303.55756833 235.54597458 -298 208 C-297.82307617 207.09813965 -297.64615234 206.1962793 -297.46386719 205.26708984 C-296.16498713 198.79400105 -294.65342874 192.39111512 -293 186 C-292.79036621 185.17999512 -292.58073242 184.35999023 -292.36474609 183.51513672 C-283.55514117 149.82975745 -266.70770621 119.03350991 -245 92 C-244.2059375 90.9996875 -243.411875 89.999375 -242.59375 88.96875 C-231.2484048 75.10221698 -218.3970719 61.7100169 -204 51 C-203.40026367 50.54028809 -202.80052734 50.08057617 -202.18261719 49.60693359 C-169.0520577 24.2542212 -131.06397758 7.36894442 -90 0 C-89.16871582 -0.16226074 -88.33743164 -0.32452148 -87.48095703 -0.49169922 C-59.86348528 -5.76694663 -27.54597458 -5.55756833 0 0 Z " fill="#FA5719" transform="translate(301,3)"/>
<path d="M0 0 C1.58371885 1.2017036 3.14801477 2.42962792 4.6875 3.6875 C5.32429687 4.19925781 5.96109375 4.71101562 6.6171875 5.23828125 C14.99856778 12.74427292 20.19350359 23.89333437 20.8984375 35.015625 C21.48708294 57.02190834 13.82538093 76.43345416 -1.11914062 92.4050293 C-15.34562688 107.2469911 -31.89613918 117.9997675 -52.97265625 118.83203125 C-58.7260881 118.89538235 -64.24990319 118.75653512 -69.9375 117.875 C-73.70548003 117.42912236 -74.07429643 117.52552157 -77.4375 119.8125 C-79.50372025 122.98070438 -79.78545115 124.01880933 -79.3125 127.6875 C-77.9235979 129.80352691 -77.9235979 129.80352691 -75.88470459 131.69638062 C-74.74484352 132.84004845 -74.74484352 132.84004845 -73.58195496 134.00682068 C-72.73732193 134.82876419 -71.8926889 135.6507077 -71.02246094 136.49755859 C-70.14131119 137.3746196 -69.26016144 138.2516806 -68.35231018 139.15531921 C-66.43418991 141.06109346 -64.51218529 142.96166124 -62.58193207 144.85502243 C-59.52673087 147.85211889 -56.4896626 150.86715288 -53.45489502 153.88491821 C-48.1016151 159.20362279 -42.73329655 164.50694099 -37.36151123 169.8069458 C-29.28538198 177.77534601 -21.22071936 185.75530242 -13.1708529 193.75023329 C-10.15538366 196.7439768 -7.13205349 199.72947508 -4.10212755 202.70858359 C-1.76897622 205.00606778 0.55457956 207.31322945 2.87988281 209.61865234 C3.71641891 210.43654739 4.55295502 211.25444244 5.4148407 212.09712219 C14.98874477 221.63251886 14.98874477 221.63251886 16.18359375 228.56640625 C16.0646828 234.01252758 15.79749732 238.02250402 12.6875 242.6875 C12.130625 243.533125 11.57375 244.37875 11 245.25 C5.88670005 250.63969454 1.68886386 253.0065653 -5.875 253.25 C-14.2357452 253.26023347 -19.39054106 248.94846471 -25.04455566 243.31759644 C-26.08198914 242.26162766 -26.08198914 242.26162766 -27.14038086 241.18432617 C-27.88933121 240.43420761 -28.63828156 239.68408905 -29.40992737 238.91123962 C-31.87278328 236.44122342 -34.32494443 233.96086343 -36.77734375 231.48046875 C-38.49622156 229.75344719 -40.21584289 228.02716536 -41.93617249 226.30158997 C-46.45884076 221.76182734 -50.97286741 217.21357338 -55.48468018 212.6630249 C-62.69972038 205.38874451 -69.92743296 198.1270617 -77.15585518 190.86608315 C-79.67114203 188.3369117 -82.18252739 185.80391768 -84.69334412 183.27030945 C-86.24721645 181.70640483 -87.80117227 180.14258317 -89.35522461 178.57885742 C-90.04482269 177.88095093 -90.73442078 177.18304443 -91.44491577 176.46398926 C-95.35036969 172.54094011 -99.36172124 168.8202107 -103.57979679 165.23428822 C-105.18620948 163.80023984 -106.57666137 162.29908136 -108 160.6875 C-110.09185917 158.42294991 -110.09185917 158.42294991 -112.60176086 158.75427246 C-116.13827319 159.97178935 -118.367192 162.06314408 -120.99682617 164.61914062 C-121.83222695 165.41114742 -121.83222695 165.41114742 -122.68450451 166.21915436 C-129.88696295 173.10073566 -136.88410088 180.19667929 -143.88775063 187.27928162 C-146.42034958 189.8389278 -148.95764508 192.39383157 -151.49638367 194.9473877 C-158.70421374 202.19759156 -165.90899049 209.45075627 -173.09790039 216.71972656 C-177.5197717 221.19016201 -181.95138686 225.65073414 -186.38948631 230.10505676 C-188.0696106 231.79505017 -189.74607977 233.48868586 -191.41872597 235.18608093 C-193.75344014 237.55461725 -196.10038161 239.91037249 -198.45043945 242.26367188 C-199.13061127 242.95979584 -199.81078308 243.6559198 -200.51156616 244.37313843 C-205.79122722 249.61979929 -211.10798611 253.56453995 -218.6875 254.3125 C-224.46706669 254.00305861 -228.93697528 251.33624265 -233.3125 247.6875 C-237.59230071 242.59332426 -240.41252248 237.73694928 -240.6875 231 C-240.73648438 230.19175781 -240.78546875 229.38351562 -240.8359375 228.55078125 C-239.0477963 218.76938201 -229.67023254 211.84183793 -222.8112793 205.3059082 C-221.52889949 204.07191322 -220.24741363 202.83698866 -218.9667511 201.60121155 C-216.2168748 198.94861988 -213.46356567 196.29965773 -210.70837975 193.65258217 C-206.34087187 189.45062018 -201.99933566 185.22249323 -197.66426086 180.98710632 C-196.93020875 180.27002654 -196.19615664 179.55294675 -195.43986052 178.81413728 C-192.41436513 175.85778664 -189.38960549 172.90068376 -186.36485994 169.94356596 C-177.80822141 161.58099462 -169.22933341 153.24436316 -160.57983398 144.9777832 C-153.6927557 138.39524749 -146.85977923 131.76152114 -140.0834325 125.06498784 C-136.5035276 121.53113542 -132.90301774 118.02727146 -129.23514366 114.58461952 C-110.75269716 98.24937871 -110.75269716 98.24937871 -103.55186939 75.79987621 C-103.77661885 71.10250843 -104.39948193 66.52718888 -105.09778786 61.88028526 C-105.6455445 53.73510389 -102.34625289 45.6864621 -98.625 38.5625 C-98.27614746 37.88364746 -97.92729492 37.20479492 -97.56787109 36.50537109 C-94.4622517 30.64415947 -90.81340852 25.57111054 -86.3125 20.6875 C-85.56355469 19.85863281 -84.81460938 19.02976563 -84.04296875 18.17578125 C-75.36825163 9.02458532 -64.97891624 1.56194734 -53.3125 -3.3125 C-52.42175781 -3.704375 -51.53101563 -4.09625 -50.61328125 -4.5 C-34.47924797 -10.573989 -14.40526535 -9.51776461 0 0 Z " fill="#FEFEFD" transform="translate(368.3125,138.3125)"/>
<path d="M0 0 C1.47726563 -0.05994141 1.47726563 -0.05994141 2.984375 -0.12109375 C10.58134746 1.17838838 16.17194269 6.92130316 21.4128418 12.22802734 C22.07897491 12.8905098 22.74510803 13.55299225 23.431427 14.23554993 C25.6114633 16.40754048 27.78053681 18.59011446 29.94921875 20.7734375 C31.47229234 22.29703038 32.99588592 23.82010359 34.51997375 25.34268188 C37.7043444 28.52714198 40.8835083 31.71668153 44.05883789 34.91015625 C48.11878233 38.99279615 52.18971621 43.06426103 56.2643919 47.13219261 C59.40898697 50.27343831 62.54855759 53.41966654 65.68656349 56.56749344 C67.1854772 58.07024198 68.68572439 59.57166171 70.18735313 61.07169724 C72.28833024 63.17230139 74.38266074 65.27931865 76.4753418 67.38818359 C77.08999802 68.0003624 77.70465424 68.6125412 78.3379364 69.24327087 C84.01713684 74.99233907 89.2410332 80.57124808 89.6875 89 C89.357285 100.64309567 79.53049242 108.78765038 71.75610352 116.45288086 C69.93732228 118.25017562 68.14097385 120.0679259 66.34570312 121.88867188 C51.29039108 136.9844395 51.29039108 136.9844395 39.90234375 137.00390625 C31.65376321 135.24242734 26.38116917 130.15132893 20.65625 124.33984375 C19.86528931 123.55033829 19.07432861 122.76083282 18.25939941 121.94740295 C16.59403585 120.28038586 14.93359124 118.60844173 13.27783203 116.93188477 C10.76981781 114.39504558 8.24381915 111.87725234 5.71484375 109.36132812 C-12.01718455 91.60677382 -26.04841951 73.54420819 -26.1875 47.375 C-25.97328739 30.77842302 -22.00978316 14.42484354 -9.75 2.4375 C-6.51121198 0.39671529 -3.80135754 0.08370865 0 0 Z " fill="#FEFDFD" transform="translate(148.75,135.5625)"/>
</svg>
